<svg width="188" height="150" viewBox="0 0 188 150" fill="none" xmlns="http://www.w3.org/2000/svg">
<path d="M94 0C42.112 0 0 33.6 0 75C0 116.4 42.112 150 94 150C145.888 150 188 116.4 188 75C188 33.6 145.888 0 94 0ZM94 22.5C109.604 22.5 122.2 32.55 122.2 45C122.2 57.45 109.604 67.5 94 67.5C78.396 67.5 65.8 57.45 65.8 45C65.8 32.55 78.396 22.5 94 22.5ZM94 129C70.5 129 49.726 119.4 37.6 104.85C37.882 89.925 75.2 81.75 94 81.75C112.706 81.75 150.118 89.925 150.4 104.85C138.274 119.4 117.5 129 94 129Z" fill="#888888"/>
</svg>
