<svg width="180" height="180" viewBox="0 0 180 180" fill="none" xmlns="http://www.w3.org/2000/svg">
<circle cx="90" cy="90" r="90" fill="white"/>
<path d="M90 0C40.32 0 0 40.32 0 90C0 139.68 40.32 180 90 180C139.68 180 180 139.68 180 90C180 40.32 139.68 0 90 0ZM90 27C104.94 27 117 39.06 117 54C117 68.94 104.94 81 90 81C75.06 81 63 68.94 63 54C63 39.06 75.06 27 90 27ZM90 154.8C67.5 154.8 47.61 143.28 36 125.82C36.27 107.91 72 98.1 90 98.1C107.91 98.1 143.73 107.91 144 125.82C132.39 143.28 112.5 154.8 90 154.8Z" fill="#726E6E"/>
</svg>
